<mxfile host="app.diagrams.net" modified="2020-10-01T11:34:09.603Z" agent="5.0 (Windows NT 10.0; Win64; x64) AppleWebKit/537.36 (KHTML, like Gecko) Chrome/85.0.4183.121 Safari/537.36" etag="W6m6Nzaz2SH0HQrGy2t6" version="13.7.7" type="github">
  <diagram id="C5RBs43oDa-KdzZeNtuy" name="Page-1">
    <mxGraphModel dx="782" dy="469" grid="1" gridSize="10" guides="1" tooltips="1" connect="1" arrows="1" fold="1" page="1" pageScale="1" pageWidth="827" pageHeight="1169" math="0" shadow="0">
      <root>
        <mxCell id="WIyWlLk6GJQsqaUBKTNV-0" />
        <mxCell id="WIyWlLk6GJQsqaUBKTNV-1" parent="WIyWlLk6GJQsqaUBKTNV-0" />
        <mxCell id="WIyWlLk6GJQsqaUBKTNV-2" value="" style="endArrow=classic;html=1;shadow=0;fontFamily=Helvetica;fontSize=11;fontColor=#5C5C5C;align=center;endFill=0;strokeColor=#6c8ebf;strokeWidth=1;edgeStyle=orthogonalEdgeStyle;fillColor=#dae8fc;" parent="WIyWlLk6GJQsqaUBKTNV-1" source="WIyWlLk6GJQsqaUBKTNV-6" target="WIyWlLk6GJQsqaUBKTNV-3" edge="1">
          <mxGeometry relative="1" as="geometry" />
        </mxCell>
        <mxCell id="WIyWlLk6GJQsqaUBKTNV-3" value="Divide" style="ellipse;whiteSpace=wrap;html=1;aspect=fixed;shadow=0;fontFamily=Helvetica;fontSize=12;align=center;strokeColor=#6c8ebf;strokeWidth=1;fillColor=#dae8fc;" parent="WIyWlLk6GJQsqaUBKTNV-1" vertex="1">
          <mxGeometry x="160" y="80" width="120" height="40" as="geometry" />
        </mxCell>
        <mxCell id="WIyWlLk6GJQsqaUBKTNV-6" value="Begin" style="ellipse;whiteSpace=wrap;html=1;aspect=fixed;shadow=0;fontFamily=Helvetica;fontSize=12;align=center;strokeColor=#6c8ebf;strokeWidth=1;fillColor=#dae8fc;" parent="WIyWlLk6GJQsqaUBKTNV-1" vertex="1">
          <mxGeometry x="170" y="170" width="100" height="80" as="geometry" />
        </mxCell>
        <mxCell id="WIyWlLk6GJQsqaUBKTNV-7" value="Plus" style="ellipse;whiteSpace=wrap;html=1;aspect=fixed;shadow=0;fontFamily=Helvetica;fontSize=12;align=center;strokeColor=#6c8ebf;strokeWidth=1;fillColor=#dae8fc;" parent="WIyWlLk6GJQsqaUBKTNV-1" vertex="1">
          <mxGeometry x="320" y="190" width="120" height="40" as="geometry" />
        </mxCell>
        <mxCell id="WIyWlLk6GJQsqaUBKTNV-12" value="Multiply" style="ellipse;whiteSpace=wrap;html=1;aspect=fixed;shadow=0;fontFamily=Helvetica;fontSize=12;align=center;strokeColor=#6c8ebf;strokeWidth=1;fillColor=#dae8fc;" parent="WIyWlLk6GJQsqaUBKTNV-1" vertex="1">
          <mxGeometry y="190" width="120" height="40" as="geometry" />
        </mxCell>
        <mxCell id="iUPQUDSOphjakr8NZaIA-1" value="+" style="text;html=1;align=center;verticalAlign=middle;resizable=0;points=[];autosize=1;fillColor=#dae8fc;strokeColor=#6c8ebf;" vertex="1" parent="WIyWlLk6GJQsqaUBKTNV-1">
          <mxGeometry x="280" y="180" width="20" height="20" as="geometry" />
        </mxCell>
        <mxCell id="iUPQUDSOphjakr8NZaIA-3" value="/" style="text;html=1;align=center;verticalAlign=middle;resizable=0;points=[];autosize=1;fillColor=#dae8fc;strokeColor=#6c8ebf;" vertex="1" parent="WIyWlLk6GJQsqaUBKTNV-1">
          <mxGeometry x="230" y="140" width="20" height="20" as="geometry" />
        </mxCell>
        <mxCell id="WIyWlLk6GJQsqaUBKTNV-11" value="Minus" style="ellipse;whiteSpace=wrap;html=1;aspect=fixed;shadow=0;fontFamily=Helvetica;fontSize=12;align=center;strokeColor=#6c8ebf;strokeWidth=1;fillColor=#dae8fc;" parent="WIyWlLk6GJQsqaUBKTNV-1" vertex="1">
          <mxGeometry x="160" y="300" width="120" height="40" as="geometry" />
        </mxCell>
        <mxCell id="iUPQUDSOphjakr8NZaIA-7" value="L bracket" style="ellipse;whiteSpace=wrap;html=1;aspect=fixed;shadow=0;fontFamily=Helvetica;fontSize=12;align=center;strokeColor=#6c8ebf;strokeWidth=1;fillColor=#dae8fc;" vertex="1" parent="WIyWlLk6GJQsqaUBKTNV-1">
          <mxGeometry x="360" y="290" width="120" height="40" as="geometry" />
        </mxCell>
        <mxCell id="iUPQUDSOphjakr8NZaIA-13" value="(" style="text;html=1;align=center;verticalAlign=middle;resizable=0;points=[];autosize=1;fillColor=#dae8fc;strokeColor=#6c8ebf;" vertex="1" parent="WIyWlLk6GJQsqaUBKTNV-1">
          <mxGeometry x="320" y="260" width="20" height="20" as="geometry" />
        </mxCell>
        <mxCell id="iUPQUDSOphjakr8NZaIA-15" value=")" style="text;html=1;align=center;verticalAlign=middle;resizable=0;points=[];autosize=1;fillColor=#dae8fc;strokeColor=#6c8ebf;" vertex="1" parent="WIyWlLk6GJQsqaUBKTNV-1">
          <mxGeometry x="330" y="320" width="20" height="20" as="geometry" />
        </mxCell>
        <mxCell id="iUPQUDSOphjakr8NZaIA-16" value="R bracket" style="ellipse;whiteSpace=wrap;html=1;aspect=fixed;shadow=0;fontFamily=Helvetica;fontSize=12;align=center;strokeColor=#6c8ebf;strokeWidth=1;fillColor=#dae8fc;" vertex="1" parent="WIyWlLk6GJQsqaUBKTNV-1">
          <mxGeometry x="392.32" y="390.86" width="120" height="40" as="geometry" />
        </mxCell>
        <mxCell id="iUPQUDSOphjakr8NZaIA-20" value="" style="endArrow=classic;html=1;strokeColor=#6c8ebf;fontColor=#5C5C5C;fillColor=#dae8fc;" edge="1" parent="WIyWlLk6GJQsqaUBKTNV-1" source="WIyWlLk6GJQsqaUBKTNV-6">
          <mxGeometry width="50" height="50" relative="1" as="geometry">
            <mxPoint x="342.32" y="460" as="sourcePoint" />
            <mxPoint x="392.32" y="410" as="targetPoint" />
          </mxGeometry>
        </mxCell>
        <mxCell id="iUPQUDSOphjakr8NZaIA-21" value="" style="endArrow=classic;html=1;entryX=0;entryY=0.5;entryDx=0;entryDy=0;strokeColor=#6c8ebf;fontColor=#5C5C5C;fillColor=#dae8fc;" edge="1" parent="WIyWlLk6GJQsqaUBKTNV-1" source="WIyWlLk6GJQsqaUBKTNV-6" target="iUPQUDSOphjakr8NZaIA-7">
          <mxGeometry width="50" height="50" relative="1" as="geometry">
            <mxPoint x="350" y="340" as="sourcePoint" />
            <mxPoint x="400" y="290" as="targetPoint" />
          </mxGeometry>
        </mxCell>
        <mxCell id="iUPQUDSOphjakr8NZaIA-22" value="" style="endArrow=classic;html=1;strokeColor=#6c8ebf;fillColor=#dae8fc;fontColor=#5C5C5C;entryX=0;entryY=0.5;entryDx=0;entryDy=0;exitX=1;exitY=0.5;exitDx=0;exitDy=0;" edge="1" parent="WIyWlLk6GJQsqaUBKTNV-1" source="WIyWlLk6GJQsqaUBKTNV-6" target="WIyWlLk6GJQsqaUBKTNV-7">
          <mxGeometry width="50" height="50" relative="1" as="geometry">
            <mxPoint x="280" y="230" as="sourcePoint" />
            <mxPoint x="330" y="180" as="targetPoint" />
          </mxGeometry>
        </mxCell>
        <mxCell id="iUPQUDSOphjakr8NZaIA-23" value="" style="endArrow=classic;html=1;strokeColor=#6c8ebf;fillColor=#dae8fc;fontColor=#5C5C5C;" edge="1" parent="WIyWlLk6GJQsqaUBKTNV-1" source="WIyWlLk6GJQsqaUBKTNV-6">
          <mxGeometry width="50" height="50" relative="1" as="geometry">
            <mxPoint x="99.28932188134524" y="260" as="sourcePoint" />
            <mxPoint x="120" y="210" as="targetPoint" />
          </mxGeometry>
        </mxCell>
        <mxCell id="iUPQUDSOphjakr8NZaIA-24" value="*" style="text;html=1;align=center;verticalAlign=middle;resizable=0;points=[];autosize=1;fillColor=#dae8fc;strokeColor=#6c8ebf;" vertex="1" parent="WIyWlLk6GJQsqaUBKTNV-1">
          <mxGeometry x="130" y="180" width="20" height="20" as="geometry" />
        </mxCell>
        <mxCell id="iUPQUDSOphjakr8NZaIA-26" value="" style="endArrow=classic;html=1;strokeColor=#6c8ebf;fillColor=#dae8fc;fontColor=#5C5C5C;entryX=0.5;entryY=0;entryDx=0;entryDy=0;" edge="1" parent="WIyWlLk6GJQsqaUBKTNV-1" source="WIyWlLk6GJQsqaUBKTNV-6" target="WIyWlLk6GJQsqaUBKTNV-11">
          <mxGeometry width="50" height="50" relative="1" as="geometry">
            <mxPoint x="380" y="280" as="sourcePoint" />
            <mxPoint x="430" y="230" as="targetPoint" />
          </mxGeometry>
        </mxCell>
        <mxCell id="iUPQUDSOphjakr8NZaIA-27" value="-" style="text;html=1;align=center;verticalAlign=middle;resizable=0;points=[];autosize=1;fillColor=#dae8fc;strokeColor=#6c8ebf;" vertex="1" parent="WIyWlLk6GJQsqaUBKTNV-1">
          <mxGeometry x="230" y="260" width="20" height="20" as="geometry" />
        </mxCell>
      </root>
    </mxGraphModel>
  </diagram>
</mxfile>
